<svg xmlns="http://www.w3.org/2000/svg"
	xmlns:xlink="http://www.w3.org/1999/xlink" aria-hidden="true" style="position: absolute; width: 0; height: 0; overflow: hidden;" version="1.1">
	<defs>
		<symbol id="fxemoji--hospital" viewBox="0 0 512 512">
			<path fill="#afc1c9" d="M483.114 208.091H149.055c-7.953 0-14.4 6.447-14.4 14.4v80.147H34.069c-7.953 0-14.4 6.447-14.4 14.4V482.6c0 7.953 6.447 14.4 14.4 14.4h449.046c7.953 0 14.4-6.447 14.4-14.4V222.491c-.001-7.953-6.449-14.4-14.401-14.4" />
			<path fill="#95aaad" d="M498.737 188.996H214.701a7.2 7.2 0 0 0-7.2 7.2v16.99a8.505 8.505 0 0 0 8.505 8.505h281.427a8.505 8.505 0 0 0 8.505-8.505v-16.99a7.201 7.201 0 0 0-7.201-7.2M18.445 279.932h284.037a7.2 7.2 0 0 1 7.2 7.2v16.99a8.505 8.505 0 0 1-8.505 8.505H19.75a8.505 8.505 0 0 1-8.505-8.505v-16.99a7.2 7.2 0 0 1 7.2-7.2" />
			<path fill="#cfdbe2" d="M316.414 30.003H58.699c-4.162 0-7.536 3.994-7.536 8.92V488.08c0 4.926 3.374 8.92 7.536 8.92h257.715c4.162 0 7.536-3.994 7.536-8.92V38.923c0-4.926-3.374-8.92-7.536-8.92" />
			<path fill="#ff473e" d="M234.917 113.538h-33.14v-33.14a7.2 7.2 0 0 0-7.2-7.2h-14.04a7.2 7.2 0 0 0-7.2 7.2v33.14h-33.14a7.2 7.2 0 0 0-7.2 7.2v14.04a7.2 7.2 0 0 0 7.2 7.2h33.14v33.14a7.2 7.2 0 0 0 7.2 7.2h14.04a7.2 7.2 0 0 0 7.2-7.2v-33.14h33.14a7.2 7.2 0 0 0 7.2-7.2v-14.04a7.2 7.2 0 0 0-7.2-7.2" />
			<path fill="#0096d1" d="M463.893 368.367H358.115a7.2 7.2 0 0 1-7.2-7.2v-42.429a7.2 7.2 0 0 1 7.2-7.2h105.779a7.2 7.2 0 0 1 7.2 7.2v42.429a7.201 7.201 0 0 1-7.201 7.2m8.439 81.968v-42.429a7.2 7.2 0 0 0-7.2-7.2H356.876a7.2 7.2 0 0 0-7.2 7.2v42.429a7.2 7.2 0 0 0 7.2 7.2h108.256a7.2 7.2 0 0 0 7.2-7.2m0-181.17V255.15a7.2 7.2 0 0 0-7.2-7.2H356.876a7.2 7.2 0 0 0-7.2 7.2v14.015a7.2 7.2 0 0 0 7.2 7.2h108.256a7.2 7.2 0 0 0 7.2-7.2" />
			<path fill="#2b3b47" d="M100.843 421.106H274.27V497H100.843z" />
			<path fill="#00b1ff" d="M205.639 368.367h-35.71a7.2 7.2 0 0 1-7.2-7.2v-44.863a7.2 7.2 0 0 1 7.2-7.2h35.71a7.2 7.2 0 0 1 7.2 7.2v44.863a7.2 7.2 0 0 1-7.2 7.2m85.161-7.2v-44.863a7.2 7.2 0 0 0-7.2-7.2h-35.71a7.2 7.2 0 0 0-7.2 7.2v44.863a7.2 7.2 0 0 0 7.2 7.2h35.71a7.2 7.2 0 0 0 7.2-7.2m-155.921 0v-44.863a7.2 7.2 0 0 0-7.2-7.2h-35.71a7.2 7.2 0 0 0-7.2 7.2v44.863a7.2 7.2 0 0 0 7.2 7.2h35.71a7.2 7.2 0 0 0 7.2-7.2m-19.774-92.002v-44.863a7.2 7.2 0 0 0-7.2-7.2H91.969a7.2 7.2 0 0 0-7.2 7.2v44.863a7.2 7.2 0 0 0 7.2 7.2h15.936a7.2 7.2 0 0 0 7.2-7.2m58.565 0v-44.863a7.2 7.2 0 0 0-7.2-7.2h-15.936a7.2 7.2 0 0 0-7.2 7.2v44.863a7.2 7.2 0 0 0 7.2 7.2h15.936a7.2 7.2 0 0 0 7.2-7.2m58.565 0v-44.863a7.2 7.2 0 0 0-7.2-7.2h-15.936a7.2 7.2 0 0 0-7.2 7.2v44.863a7.2 7.2 0 0 0 7.2 7.2h15.936a7.2 7.2 0 0 0 7.2-7.2m58.565 0v-44.863a7.2 7.2 0 0 0-7.2-7.2h-15.936a7.2 7.2 0 0 0-7.2 7.2v44.863a7.2 7.2 0 0 0 7.2 7.2H283.6a7.2 7.2 0 0 0 7.2-7.2" />
			<path fill="#67747c" d="M274.27 429.12H100.843v-8.22c0-5.442 4.412-9.854 9.854-9.854h153.718c5.442 0 9.854 4.412 9.854 9.854z" />
			<path fill="#95aaad" d="M329.803 20.062H45.766a7.2 7.2 0 0 0-7.2 7.2v16.99a8.505 8.505 0 0 0 8.505 8.505h281.427a8.505 8.505 0 0 0 8.505-8.505v-16.99a7.2 7.2 0 0 0-7.2-7.2" />
		</symbol>
		<symbol id="noto--hospital" viewBox="0 0 128 128">
			<path fill="#bacfd4" d="M4.36 94.22S4.3 30.27 4.3 28.44c0-2.01 1.05-2.36 2.73-2.41c1.61-.05 112.48-.1 114.23-.05c2.29.06 2.5 1.5 2.58 3.33c.08 1.83.02 64.96.02 64.96l-62.63 1.16z" />
			<path fill="#6ba4ae" d="M4.36 94.22s.03 26.54.03 27.92s1 2.38 2.89 2.38s112.59-.25 114.1-.25s2.38-1.38 2.51-3.64c.13-2.26-.01-26.37-.01-26.37z" />
			<path fill="#546f7a" d="m33.83 102.57l.11 21.87h59.32l.1-22.29z" />
			<path fill="#b9ced3" d="M40.1 103.67v20.75h3.3v-21.04zm21.93-.39v21.11h3.34v-21.43zm22.61.04v21.12h3.43v-21.57z" />
			<path fill="#f1edec" d="M39.45 94.47S39.1 8.98 39.1 7.13s.71-3.31 2.56-3.43c1.85-.12 41.76-.12 43.38 0c1.62.12 2.65 1.12 2.65 3.2s.23 87.57.23 87.57l16.89 2.08v5.09c0 1.62-.58 2.26-2.26 2.26H23.59c-1.5 0-1.97-1.56-1.97-3.18v-5.44z" />
			<path fill="#fefffd" d="m21.66 97.05l83.15-.04s.05-1.79 0-2.68c-.07-1.26-1.14-1.3-3.58-1.3H23.6c-1.06 0-1.88.37-1.96 1.43s.02 2.54.02 2.59" />
			<path fill="#546f7a" d="M47.49 65.41c.23.23 31.31.37 31.51.16c.18-.19.32-11.69.08-11.93c-.31-.31-31.35-.24-31.59 0c-.24.24-.24 11.52 0 11.77m.08 9.75c-.41.14-.08 11.69-.08 11.69l31.67-.24s.28-11.18-.24-11.44c-.32-.17-30.86-.17-31.35-.01m44.49-41.35v12.74h12.01v-12.9zm16.76-.16h11.37l.16 12.74h-11.61zm-.16 20.31l-.08 12.33h11.53l.16-12.33zm-4.59-.08H91.98v12.41h12.25zm.08 20.47H92.06V87h12.25c0 .01-.32-12.81-.16-12.65m4.51-.08h11.44v12.9h-11.44s.12-13.02 0-12.9m-84.3 12.57V74.03l11.77-.16v12.81zm-4.51-.08V73.95H7.84l.08 12.98c0-.01 12.09-.17 11.93-.17M7.76 53.64h12.17v12.33H7.76zm16.76-.08v12.41h11.45V53.64zm.16-20.39H35.8v12.98H24.68zm-4.99.48l-11.77-.08v12.41h11.77z" />
			<path fill="#dd0c26" d="M56.94 20.78s-.02-12.35.07-13.19c.08-.85.59-1.02 1.19-1.02c.59 0 10.85 0 11.44.08c.59.08.85.59.85 1.53v12.54s12.2.08 12.71.08c.51 0 1.02.59 1.02 1.27v11.18c0 .76-.08 1.53-1.02 1.69s-12.79 0-12.79 0v14.09c0 .58-.49 1.08-1.31 1.14s-10.99 0-11.56 0s-.57-1.71-.57-2.29V35.24H43.69c-.58 0-.83-.57-.89-1.65c-.06-1.08.04-10.86.06-11.43c.04-.89.38-1.32 1.01-1.38c.62-.05 13.07 0 13.07 0" />
			<path fill="#fff" d="M62.13 11.57h3.16v34.1h-3.16z" />
			<path fill="#fff" d="M47.69 26.26h31.56v3.21H47.69z" />
		</symbol>
		<symbol id="emojione-monotone--hospital" viewBox="0 0 64 64">
			<path fill="currentColor" d="M32 49.813v1.875a.94.94 0 0 0 .938.938h27.188v-3.75H32.938a.94.94 0 0 0-.938.937m28.125-6.563H32.938a.94.94 0 0 0-.938.938v1.875a.94.94 0 0 0 .938.937h27.188v-3.75z" />
			<path fill="currentColor" d="M61.063 58.25h-.938V54.5H32.938a.941.941 0 0 0-.938.938v2.813h-1.875V42.313a.94.94 0 0 1 .938-.938h29.063v-3.75a1.88 1.88 0 0 0-1.875-1.875H45.125V22.625A5.63 5.63 0 0 0 39.5 17h-4.688V9.5a7.5 7.5 0 0 0-15 0V17h-4.688A5.63 5.63 0 0 0 9.5 22.625V35.75h-.937c-.516 0-1.172.351-1.457.78l-2.711 4.064c-.285.43-.52 1.202-.52 1.718V58.25h-.937a.941.941 0 0 0-.938.938v1.875a.94.94 0 0 0 .938.937h58.125a.94.94 0 0 0 .937-.937v-1.875a.941.941 0 0 0-.937-.938m-38.438-5.625v5.625h-.938v-5.625h-3.281V54.5c.258 0 .469.212.469.469v.938a.47.47 0 0 1-.469.469v1.875h-.938v-1.875a.47.47 0 0 1-.469-.469v-.938c0-.257.211-.469.469-.469v-1.875h-3.281v5.625h-.937v-6.563h9.376v.938zm4.688-49.219A6.101 6.101 0 0 1 33.407 9.5c0 3.36-2.733 6.094-6.094 6.094S21.219 12.86 21.219 9.5a6.1 6.1 0 0 1 6.094-6.094M11.375 22.625a3.761 3.761 0 0 1 3.75-3.75H39.5a3.761 3.761 0 0 1 3.75 3.75V35.75H26.375a1.88 1.88 0 0 0-1.875 1.875V58.25h-.938v-7.219h-11.25v7.219h-.938zM6.688 40.906c0-.257.211-.469.469-.469h.938c.258 0 .469.212.469.469v4.688a.471.471 0 0 1-.469.469h-.939a.471.471 0 0 1-.469-.469zm0 8.438c0-.257.211-.469.469-.469h.938c.258 0 .469.212.469.469v4.688a.47.47 0 0 1-.469.469h-.939a.47.47 0 0 1-.469-.469z" />
			<path fill="currentColor" d="M13.719 34.813h.938a.471.471 0 0 0 .469-.469v-4.688a.471.471 0 0 0-.469-.469h-.938a.471.471 0 0 0-.469.469v4.688c0 .257.211.469.469.469m3.75 0h.938a.471.471 0 0 0 .469-.469v-4.688a.471.471 0 0 0-.469-.469h-.938a.471.471 0 0 0-.469.469v4.688c0 .257.211.469.469.469m3.75 0h.938a.471.471 0 0 0 .469-.469v-4.688a.471.471 0 0 0-.469-.469h-.938a.471.471 0 0 0-.469.469v4.688c0 .257.211.469.469.469m3.75 0h.938a.471.471 0 0 0 .469-.469v-4.688a.471.471 0 0 0-.469-.469h-.938a.471.471 0 0 0-.469.469v4.688c0 .257.211.469.469.469m3.75 0h.938a.471.471 0 0 0 .469-.469v-4.688a.471.471 0 0 0-.469-.469h-.938a.471.471 0 0 0-.469.469v4.688c0 .257.211.469.469.469m-15 7.5h.938a.471.471 0 0 0 .469-.469v-4.688a.471.471 0 0 0-.469-.469h-.938a.471.471 0 0 0-.469.469v4.688c0 .257.211.469.469.469m3.75 0h.938a.471.471 0 0 0 .469-.469v-4.688a.471.471 0 0 0-.469-.469h-.938a.471.471 0 0 0-.469.469v4.688c0 .257.211.469.469.469m3.75 0h.938a.471.471 0 0 0 .469-.469v-4.688a.471.471 0 0 0-.469-.469h-.938a.471.471 0 0 0-.469.469v4.688c0 .257.211.469.469.469m-7.5 7.5h.938a.471.471 0 0 0 .469-.469v-4.688a.471.471 0 0 0-.469-.469h-.938a.471.471 0 0 0-.469.469v4.688c0 .257.211.469.469.469m3.75 0h.938a.471.471 0 0 0 .469-.469v-4.688a.471.471 0 0 0-.469-.469h-.938a.471.471 0 0 0-.469.469v4.688c0 .257.211.469.469.469m3.75 0h.938a.471.471 0 0 0 .469-.469v-4.688a.471.471 0 0 0-.469-.469h-.938a.471.471 0 0 0-.469.469v4.688c0 .257.211.469.469.469m-7.5-22.5h.938a.471.471 0 0 0 .469-.469v-4.688a.471.471 0 0 0-.469-.469h-.938a.471.471 0 0 0-.469.469v4.688c0 .257.211.469.469.469m3.75 0h.938a.471.471 0 0 0 .469-.469v-4.688a.471.471 0 0 0-.469-.469h-.938a.471.471 0 0 0-.469.469v4.688c0 .257.211.469.469.469m3.75 0h.938a.471.471 0 0 0 .469-.469v-4.688a.471.471 0 0 0-.469-.469h-.938a.471.471 0 0 0-.469.469v4.688c0 .257.211.469.469.469m3.75 0h.938a.471.471 0 0 0 .469-.469v-4.688a.471.471 0 0 0-.469-.469h-.938a.471.471 0 0 0-.469.469v4.688c0 .257.211.469.469.469m3.75 0h.938a.471.471 0 0 0 .469-.469v-4.688a.471.471 0 0 0-.469-.469h-.938a.471.471 0 0 0-.469.469v4.688c0 .257.211.469.469.469m3.75 7.5h.938a.471.471 0 0 0 .469-.469v-4.688a.471.471 0 0 0-.469-.469h-.938a.471.471 0 0 0-.469.469v4.688c0 .257.211.469.469.469m0-7.5h.938a.471.471 0 0 0 .469-.469v-4.688a.471.471 0 0 0-.469-.469h-.938a.471.471 0 0 0-.469.469v4.688c0 .257.211.469.469.469m3.75 7.5h.938a.471.471 0 0 0 .469-.469v-4.688a.471.471 0 0 0-.469-.469h-.938a.471.471 0 0 0-.469.469v4.688c0 .257.211.469.469.469m0-7.5h.938a.471.471 0 0 0 .469-.469v-4.688a.471.471 0 0 0-.469-.469h-.938a.471.471 0 0 0-.469.469v4.688c0 .257.211.469.469.469m3.75 7.5h.938a.471.471 0 0 0 .469-.469v-4.688a.471.471 0 0 0-.469-.469h-.938a.471.471 0 0 0-.469.469v4.688c0 .257.211.469.469.469m0-7.5h.938a.471.471 0 0 0 .469-.469v-4.688a.471.471 0 0 0-.469-.469h-.938a.471.471 0 0 0-.469.469v4.688c0 .257.211.469.469.469M25.75 11.063v2.344c0 .43.353.781.781.781h1.563a.784.784 0 0 0 .781-.781v-2.344h2.344c.43 0 .781-.352.781-.781V8.719a.783.783 0 0 0-.781-.781h-2.344V5.594a.784.784 0 0 0-.781-.781h-1.563a.784.784 0 0 0-.781.781v2.344h-2.344a.783.783 0 0 0-.781.781v1.563c0 .43.352.781.781.781z" />
		</symbol>
		<symbol id="mage--hospital-shield-fill" viewBox="0 0 24 24">
			<path fill="currentColor" d="M20.945 5.069a2.75 2.75 0 0 0-1.33-1l-4.92-1.64a8.58 8.58 0 0 0-5.35 0l-4.91 1.64a2.67 2.67 0 0 0-1.83 2.54v5.28a8.44 8.44 0 0 0 4 7.16l4 2.55a2.72 2.72 0 0 0 2.84 0l4-2.55a8.54 8.54 0 0 0 2.9-3.07a8.439 8.439 0 0 0 1.05-4.09v-5.28a2.66 2.66 0 0 0-.45-1.54m-4.13 7.2a1.2 1.2 0 0 1-1.2 1.2h-1.49v1.5a1.2 1.2 0 0 1-1.2 1.2h-1.8a1.191 1.191 0 0 1-1.2-1.2v-1.53h-1.5a1.25 1.25 0 0 1-.85-.35a1.21 1.21 0 0 1-.35-.85v-1.8c0-.316.126-.618.35-.84a1.21 1.21 0 0 1 .85-.36h1.5v-1.49a1.2 1.2 0 0 1 1.2-1.2h1.8a1.15 1.15 0 0 1 .84.35a1.2 1.2 0 0 1 .36.85v1.49h1.49a1.18 1.18 0 0 1 .85.36a1.15 1.15 0 0 1 .35.84z" />
			<path fill="currentColor" d="M15.315 10.769v1.2h-1.94a.75.75 0 0 0-.75.75v1.95h-1.2v-1.95a.76.76 0 0 0-.75-.75h-1.95v-1.2h1.95a.75.75 0 0 0 .75-.75v-1.94h1.2v1.94a.74.74 0 0 0 .75.75z" />
		</symbol>
		<symbol id="fa6-solid--hospital" viewBox="0 0 640 512">
			<path fill="currentColor" d="M192 48c0-26.5 21.5-48 48-48h160c26.5 0 48 21.5 48 48v464h-80v-80c0-26.5-21.5-48-48-48s-48 21.5-48 48v80h-80zM48 96h112v416H48c-26.5 0-48-21.5-48-48V320h80c8.8 0 16-7.2 16-16s-7.2-16-16-16H0v-64h80c8.8 0 16-7.2 16-16s-7.2-16-16-16H0v-48c0-26.5 21.5-48 48-48m544 0c26.5 0 48 21.5 48 48v48h-80c-8.8 0-16 7.2-16 16s7.2 16 16 16h80v64h-80c-8.8 0-16 7.2-16 16s7.2 16 16 16h80v144c0 26.5-21.5 48-48 48H480V96zM312 64c-8.8 0-16 7.2-16 16v24h-24c-8.8 0-16 7.2-16 16v16c0 8.8 7.2 16 16 16h24v24c0 8.8 7.2 16 16 16h16c8.8 0 16-7.2 16-16v-24h24c8.8 0 16-7.2 16-16v-16c0-8.8-7.2-16-16-16h-24V80c0-8.8-7.2-16-16-16z" />
		</symbol>
		<symbol id="healthicons--doctor-male" viewBox="0 0 48 48">
			<g fill="currentColor">
				<path fill-rule="evenodd" d="M33.834 13.81c0 3.461-.86 7.975-2.183 7.29a8.001 8.001 0 0 1-15.611-1.54c-1.313-2.297-3.035-6.9 1.392-10.488c.08-.026.128-.242.2-.56c.274-1.203.881-3.877 4.71-3.366c2.953.393 11.492 1.918 11.492 8.665m-3.806 2.182s-.452 1.322-.028 2.795a6 6 0 0 1-11.996.197c.145-.55.145-1.481.144-2.516c-.001-1.867-.003-4.07.852-4.968c5.989 3.989 11.028 4.492 11.028 4.492" clip-rule="evenodd" />
				<path d="M13 36c0-1.082.573-2.03 1.433-2.558a11.58 11.58 0 0 1-.092-.375a21.61 21.61 0 0 1-.355-2.068a19.63 19.63 0 0 1-.155-2.006C9.61 30.65 6 33.538 6 36.57V42h36v-5.43c0-2.904-3.31-5.675-7.298-7.36v.028c.018.61-.016 1.31-.082 1.983c-.06.624-.149 1.246-.256 1.779H35a1 1 0 0 1 .894.553l1 2c.07.139.106.292.106.447v2a1 1 0 0 1-1 1h-2v-2h1v-.764L34.382 35h-2.764L31 36.236V37h1v2h-2a1 1 0 0 1-1-1v-2c0-.155.036-.308.106-.447l1-2A1 1 0 0 1 31 33h1.315c.022-.086.044-.181.066-.286c.1-.471.189-1.068.249-1.685c.06-.618.088-1.231.073-1.735a5.18 5.18 0 0 0-.049-.624c-.022-.142-.044-.207-.048-.221c-.001-.003-.002-.004 0-.002l.003-.001A21.732 21.732 0 0 0 31 28.013c-.503-.115-1.023.577-1.25 1.01H18a9.88 9.88 0 0 1-.086-.168c-.212-.422-.473-.943-.914-.842c-.385.087-.77.187-1.155.297a6.55 6.55 0 0 0-.016.527c.004.553.057 1.23.142 1.914c.085.682.2 1.346.32 1.87c.034.151.068.287.1.404A3 3 0 1 1 13 36" />
				<path d="M17 36c0 .574-.462 1.015-1 1.015s-1-.44-1-1.015c0-.574.462-1.015 1-1.015s1 .44 1 1.015" />
			</g>
		</symbol>
		<symbol id="healthicons--doctor" viewBox="0 0 48 48">
			<path fill="currentColor" fill-rule="evenodd" d="M14.433 33.442a3 3 0 1 0 1.96-.416a8.972 8.972 0 0 1-.103-.405a19.627 19.627 0 0 1-.32-1.87a17.026 17.026 0 0 1-.14-1.914a6.55 6.55 0 0 1 .015-.527c.384-.11.77-.21 1.155-.297c.441-.1.703.42.914.842l.086.169h11.749c.229-.434.748-1.126 1.251-1.011c.536.122 1.075.267 1.609.433l-.003.001c-.002-.002-.002-.002 0 .002c.004.014.026.08.048.22c.025.162.042.372.05.625c.014.504-.015 1.117-.074 1.735c-.06.617-.149 1.214-.249 1.685c-.022.105-.044.2-.066.286H31a1 1 0 0 0-.894.553l-1 2A.999.999 0 0 0 29 36v2a1 1 0 0 0 1 1h2v-2h-1v-.764L31.618 35h2.764L35 36.236V37h-1v2h2a1 1 0 0 0 1-1v-2a.999.999 0 0 0-.106-.447l-1-2A1 1 0 0 0 35 33h-.636c.107-.533.196-1.155.256-1.779c.066-.674.1-1.373.083-1.983l-.001-.028C38.69 30.895 42 33.666 42 36.57V42H6v-5.43c0-3.032 3.61-5.92 7.831-7.577c.011.622.07 1.325.155 2.006c.092.735.217 1.466.355 2.068c.03.129.06.254.092.375M16 37.015c.538 0 1-.44 1-1.015c0-.574-.462-1.015-1-1.015s-1 .44-1 1.015c0 .574.462 1.015 1 1.015M24 24a8 8 0 1 0 0-16a8 8 0 0 0 0 16m0 2c5.523 0 10-4.477 10-10S29.523 6 24 6s-10 4.477-10 10s4.477 10 10 10" clip-rule="evenodd" />
		</symbol>
		<symbol id="vaadin--doctor" viewBox="0 0 16 16">
			<path fill="currentColor" d="M14 11.3c-1-1.9-2-1.6-3.1-1.7c.1.3.1.6.1 1c1.6.4 2 2.3 2 3.4v1h-2v-1h1s0-2.5-1.5-2.5S9 13.9 9 14h1v1H8v-1c0-1.1.4-3.1 2-3.4c0-.6-.1-1.1-.2-1.3c-.2-.1-.4-.3-.4-.6c0-.6.8-.4 1.4-1.5c0 0 .9-2.3.6-4.3h-1c0-.2.1-.3.1-.5s0-.3-.1-.5h.8C10.9.9 9.9 0 8 0C6.1 0 5.1.9 4.7 2h.8c0 .2-.1.3-.1.5s0 .3.1.5h-1c-.2 2 .6 4.3.6 4.3c.6 1 1.4.8 1.4 1.5c0 .5-.5.7-1.1.8c-.2.2-.4.6-.4 1.4v1.2c.6.2 1 .8 1 1.4c0 .7-.7 1.4-1.5 1.4S3 14.3 3 13.5c0-.7.4-1.2 1-1.4v-1.2c0-.5.1-.9.2-1.3c-.7.1-1.5.4-2.2 1.7c-.6 1.1-.9 4.7-.9 4.7h13.7c.1 0-.2-3.6-.8-4.7M6.5 2.5C6.5 1.7 7.2 1 8 1s1.5.7 1.5 1.5S8.8 4 8 4s-1.5-.7-1.5-1.5" />
			<path fill="currentColor" d="M5 13.5a.5.5 0 1 1-1 0a.5.5 0 0 1 1 0" />
		</symbol>
		<symbol id="mdi--doctor" viewBox="0 0 24 24">
			<path fill="currentColor" d="M14.84 16.26C17.86 16.83 20 18.29 20 20v2H4v-2c0-1.71 2.14-3.17 5.16-3.74L12 21zM8 8h8v2a4 4 0 0 1-4 4a4 4 0 0 1-4-4zm0-1l.41-4.1a1 1 0 0 1 1-.9h5.19c.51 0 .94.39.99.9L16 7zm4-4h-1v1h-1v1h1v1h1V5h1V4h-1z" />
		</symbol>
	</defs>
</svg>
